<?xml version="1.0" standalone="no"?>
<!DOCTYPE svg PUBLIC "-//W3C//DTD SVG 20010904//EN"
 "http://www.w3.org/TR/2001/REC-SVG-20010904/DTD/svg10.dtd">
<svg version="1.0" xmlns="http://www.w3.org/2000/svg"
 width="200.000000pt" height="200.000000pt" viewBox="0 0 200.000000 200.000000"
 preserveAspectRatio="xMidYMid meet">

<g transform="translate(0.000000,200.000000) scale(0.100000,-0.100000)"
fill="#000000" stroke="none">
<path d="M787 1943 c-4 -3 -7 -23 -7 -43 0 -87 -4 -93 -101 -134 l-89 -38 -49
41 c-27 23 -53 41 -58 41 -4 0 -75 -67 -156 -148 l-148 -148 33 -39 c18 -22
39 -47 45 -56 10 -12 5 -32 -26 -105 -21 -49 -45 -90 -52 -91 -8 -1 -40 -5
-72 -8 l-57 -6 2 -212 3 -212 68 -7 c38 -3 70 -8 72 -10 1 -2 19 -42 40 -91
l37 -87 -41 -49 c-23 -27 -41 -53 -41 -58 0 -4 67 -75 148 -156 l148 -148 39
33 c22 18 47 39 56 45 12 10 32 5 105 -26 49 -21 90 -45 91 -52 1 -8 5 -40 8
-72 l6 -57 130 0 129 0 0 115 0 115 119 0 119 0 22 -35 c44 -71 146 -95 220
-54 101 57 107 210 10 277 -25 16 -47 22 -89 22 -67 0 -112 -24 -143 -75 l-20
-36 -117 3 -116 3 -3 53 c-2 28 -6 52 -10 52 -52 1 -179 23 -222 40 -122 46
-245 171 -292 295 -19 50 -23 79 -23 175 0 96 4 125 23 175 47 124 170 249
292 295 43 17 170 39 222 40 4 0 8 24 10 53 l3 52 116 3 117 3 20 -36 c31 -51
76 -75 143 -75 42 0 64 6 89 23 97 66 91 219 -10 276 -74 41 -176 17 -220 -54
l-22 -35 -119 0 -119 0 0 115 0 115 -128 0 c-71 0 -132 -3 -135 -7z"/>
<path d="M1708 1590 c-48 -26 -80 -72 -85 -124 -5 -42 -6 -43 -92 -87 l-86
-44 -290 -5 c-271 -5 -293 -6 -337 -27 -168 -77 -250 -283 -176 -444 31 -68
81 -120 151 -157 l52 -27 300 -5 300 -5 86 -44 c86 -44 87 -45 92 -87 6 -53
38 -99 87 -124 50 -26 93 -25 146 1 58 27 88 78 88 144 0 124 -124 200 -234
143 l-45 -24 -97 48 -98 48 -268 0 c-314 0 -349 6 -416 73 -88 89 -88 225 0
314 67 67 102 73 416 73 l268 0 98 48 97 48 45 -24 c109 -57 234 20 234 143 0
66 -30 117 -88 144 -52 26 -100 26 -148 1z"/>
<path d="M1699 1137 c-19 -12 -43 -37 -54 -54 l-20 -32 -367 -1 -368 0 0 -50
0 -50 368 0 367 -1 20 -32 c32 -51 80 -77 140 -77 160 0 220 207 85 297 -46
32 -124 32 -171 0z"/>
</g>
</svg>
