<?xml version="1.0" standalone="no"?>
<!DOCTYPE svg PUBLIC "-//W3C//DTD SVG 20010904//EN"
 "http://www.w3.org/TR/2001/REC-SVG-20010904/DTD/svg10.dtd">
<svg version="1.0" xmlns="http://www.w3.org/2000/svg"
 width="200.000000pt" height="200.000000pt" viewBox="0 0 200.000000 200.000000"
 preserveAspectRatio="xMidYMid meet">

<g transform="translate(0.000000,200.000000) scale(0.100000,-0.100000)"
fill="#000000" stroke="none">
<path d="M848 1874 c-3 -47 -3 -47 -62 -72 -38 -17 -63 -22 -71 -16 -7 5 -24
18 -39 28 l-28 19 -99 -99 -99 -99 31 -38 31 -38 -23 -55 c-25 -57 -46 -74
-95 -74 l-24 0 0 -140 c0 -154 -5 -143 68 -152 19 -2 29 -16 48 -62 l24 -60
-29 -36 -29 -37 101 -101 102 -100 37 30 37 30 57 -23 c31 -13 58 -28 59 -34
2 -5 6 -27 10 -47 l6 -38 84 0 85 0 0 75 0 75 83 0 c80 0 82 -1 99 -30 29 -51
116 -59 162 -14 30 31 39 77 22 117 -18 44 -39 59 -91 64 -41 5 -47 3 -81 -31
-35 -35 -38 -36 -115 -36 l-79 0 0 34 0 33 -60 6 c-118 13 -233 95 -283 205
-34 73 -31 198 6 274 54 109 156 180 284 195 52 6 53 6 53 39 l0 34 79 0 c77
0 80 -1 114 -35 28 -28 43 -35 74 -35 47 0 81 22 99 66 31 73 -20 144 -102
144 -34 0 -51 -6 -69 -25 -14 -13 -25 -29 -25 -35 0 -6 -33 -10 -85 -10 l-85
0 0 75 0 75 -89 0 -90 0 -3 -46z"/>
<path d="M1493 1693 c-32 -6 -72 -51 -79 -90 -5 -28 -15 -38 -58 -61 -50 -26
-57 -27 -258 -32 l-206 -5 -43 -30 c-118 -83 -143 -232 -56 -332 58 -66 87
-72 307 -73 193 -1 196 -1 249 -29 47 -24 55 -33 70 -76 13 -39 24 -52 54 -68
113 -58 212 91 117 176 -35 31 -75 35 -120 12 -28 -15 -33 -14 -100 20 l-70
35 -185 0 c-208 0 -237 6 -276 61 -33 46 -34 130 -2 175 41 57 70 64 277 64
l186 0 71 35 c65 33 71 35 92 20 57 -40 150 1 163 71 15 79 -51 142 -133 127z"/>
<path d="M1475 1386 c-17 -7 -39 -25 -48 -40 l-17 -26 -240 0 -240 0 0 -30 0
-30 237 0 237 0 31 -34 c49 -54 103 -59 158 -16 53 42 44 134 -17 171 -36 22
-60 23 -101 5z"/>
<path d="M1210 556 c0 -41 -1 -43 -25 -38 -89 17 -142 -92 -77 -158 26 -25 36
-28 85 -27 l57 1 0 133 c0 126 -1 133 -20 133 -17 0 -20 -7 -20 -44z m-19 -76
c14 -8 19 -21 19 -48 0 -43 -14 -62 -47 -62 -42 0 -58 65 -23 100 23 23 25 23
51 10z"/>
<path d="M1290 570 c0 -15 7 -20 25 -20 18 0 25 5 25 20 0 15 -7 20 -25 20
-18 0 -25 -5 -25 -20z"/>
<path d="M362 500 c-30 -28 -37 -64 -20 -108 18 -48 57 -68 107 -56 26 7 37
15 39 32 3 22 -12 30 -23 12 -7 -12 -55 -13 -71 -2 -6 4 -13 15 -17 25 -6 15
1 17 58 17 72 0 78 7 50 59 -23 46 -85 56 -123 21z m79 -20 c31 -17 22 -30
-21 -30 -41 0 -49 7 -28 28 15 15 24 15 49 2z"/>
<path d="M528 423 c3 -84 5 -93 23 -93 17 0 19 7 19 63 0 66 5 80 32 90 31 11
48 -19 48 -89 0 -58 2 -64 21 -64 20 0 21 4 17 81 -4 98 -13 108 -101 107
l-62 -1 3 -94z"/>
<path d="M745 496 c-19 -19 -25 -35 -25 -68 1 -47 12 -68 49 -87 28 -16 90 -6
98 15 7 19 -12 41 -21 25 -9 -15 -59 -14 -74 1 -7 7 -12 27 -12 45 0 44 35 69
74 52 31 -14 45 -5 30 19 -7 10 -27 18 -52 20 -34 3 -47 -2 -67 -22z"/>
<path d="M915 495 c-19 -18 -25 -35 -25 -68 0 -56 23 -86 72 -94 32 -5 41 -1
69 26 29 29 31 36 26 79 -6 55 -33 82 -84 82 -23 0 -42 -8 -58 -25z m101 -51
c14 -55 -38 -98 -74 -62 -13 13 -16 67 -4 84 21 32 68 19 78 -22z"/>
<path d="M1300 425 c0 -88 1 -95 20 -95 19 0 20 7 20 95 0 88 -1 95 -20 95
-19 0 -20 -7 -20 -95z"/>
<path d="M1395 496 c-19 -19 -25 -35 -25 -68 1 -47 12 -68 49 -87 28 -16 90
-6 98 15 7 19 -12 41 -21 25 -9 -15 -59 -14 -74 1 -7 7 -12 27 -12 45 0 44 35
69 74 52 31 -14 45 -5 30 19 -7 10 -27 18 -52 20 -34 3 -47 -2 -67 -22z"/>
<path d="M1565 495 c-27 -26 -34 -89 -15 -125 16 -29 82 -46 119 -30 33 13 35
18 23 37 -5 8 -13 9 -22 3 -35 -22 -90 -5 -90 27 0 9 17 13 60 13 56 0 60 1
60 24 0 68 -86 101 -135 51z m83 -17 c21 -21 13 -28 -28 -28 -42 0 -52 12 -22
29 23 14 36 13 50 -1z"/>
<path d="M194 196 c-3 -8 -4 -23 -2 -33 3 -11 6 -6 9 15 6 34 2 42 -7 18z"/>
<path d="M1123 175 c0 -22 2 -30 4 -17 2 12 2 30 0 40 -3 9 -5 -1 -4 -23z"/>
<path d="M856 177 c3 -10 9 -15 12 -12 3 3 0 11 -7 18 -10 9 -11 8 -5 -6z"/>
<path d="M292 160 c0 -14 2 -19 5 -12 2 6 2 18 0 25 -3 6 -5 1 -5 -13z"/>
<path d="M332 160 c0 -14 2 -19 5 -12 2 6 2 18 0 25 -3 6 -5 1 -5 -13z"/>
<path d="M382 160 c0 -14 2 -19 5 -12 2 6 2 18 0 25 -3 6 -5 1 -5 -13z"/>
<path d="M1171 164 c0 -11 3 -14 6 -6 3 7 2 16 -1 19 -3 4 -6 -2 -5 -13z"/>
</g>
</svg>
